<svg xmlns="http://www.w3.org/2000/svg" width="23" height="24" viewBox="0 0 23 24">
    <g data-name="그룹 4844" transform="translate(-.333 .167)">
        <ellipse data-name="타원 174" cx="11.5" cy="12" rx="11.5" ry="12" transform="translate(.333 -.167)" style="fill:#fdf1ee"/>
        <path data-name="패스 14960" d="M122.743 359.454h-1.152V356.2a3.153 3.153 0 0 0-2.882-3.212v-1.128a.615.615 0 0 0-.656-.464.607.607 0 0 0-.5.464v1.128a3.153 3.153 0 0 0-2.883 3.212v3.255h-1.15a.552.552 0 0 0 0 1.085h2.88v.543a1.732 1.732 0 0 0 3.459 0v-.543h2.882a.551.551 0 0 0 0-1.085zm-4.035 1.628a.577.577 0 0 1-1.153 0v-.543h1.153z" transform="translate(-106.258 -345.511)" style="fill:#c6483e;fill-rule:evenodd"/>
    </g>
</svg>
