<svg xmlns="http://www.w3.org/2000/svg" width="24" height="16" viewBox="0 0 24 16">
    <defs>
        <clipPath id="km901amhha">
            <path data-name="사각형 3489" transform="translate(63 1200)" style="fill:#fff;stroke:#707070" d="M0 0h24v16H0z"/>
        </clipPath>
    </defs>
    <g data-name="마스크 그룹 4766" transform="translate(-63 -1200)" style="clip-path:url(#km901amhha)">
        <g data-name="그룹 4770">
            <path data-name="패스 14927" d="M428.924 165.493v-2.1a1.755 1.755 0 0 0-.262-.928 1.736 1.736 0 0 0-.7-.646 1.853 1.853 0 0 0-.984-.249 1.875 1.875 0 0 0-.974.307l-1.133.781a.519.519 0 0 1-.323.1h-4.415a1.81 1.81 0 0 0-1.81 1.809v6.895a1.809 1.809 0 0 0 1.848 1.809h4.429a.515.515 0 0 1 .324.1l1.122.774a1.855 1.855 0 0 0 1.064.333h.017a1.926 1.926 0 0 0 .881-.214 1.761 1.761 0 0 0 .972-1.58v-2.175a2.584 2.584 0 0 0-.054-5.02zm.391 3.319a1.3 1.3 0 0 1-.391.331v-2.259a1.289 1.289 0 0 1 .391 1.928z" transform="translate(-352.326 1039.43)" style="fill:#b75044"/>
            <path data-name="패스 14928" d="M498.491 195.243a.481.481 0 0 0-.373-.191h-3.11a.484.484 0 0 0-.372.189.745.745 0 0 0 0 .914.489.489 0 0 0 .372.191h3.11a.48.48 0 0 0 .373-.189.754.754 0 0 0 0-.914z" transform="translate(-415.288 1011.748)" style="fill:#b75044"/>
            <path data-name="패스 14929" d="m497.221 209.9-1.9-1.247a.646.646 0 0 0-.891.177.628.628 0 0 0-.1.236.646.646 0 0 0 0 .255.645.645 0 0 0 .279.409l1.877 1.238a.613.613 0 0 0 .363.121h.007a.65.65 0 0 0 .545-.3.647.647 0 0 0-.183-.894z" transform="translate(-415.156 1000.589)" style="fill:#b75044"/>
            <path data-name="패스 14930" d="M494.567 176.79a.633.633 0 0 0 .309.081h.03a.644.644 0 0 0 .345-.151l1.893-1.208a.649.649 0 0 0 .274-.409.642.642 0 0 0-.093-.482.639.639 0 0 0-.666-.281.643.643 0 0 0-.229.1l-1.9 1.245a.64.64 0 0 0-.284.667.616.616 0 0 0 .092.223.628.628 0 0 0 .229.215z" transform="translate(-415.083 1028.885)" style="fill:#b75044"/>
        </g>
    </g>
</svg>
