<svg xmlns="http://www.w3.org/2000/svg" width="16" height="16" viewBox="0 0 16 16">
    <defs>
        <clipPath id="gtj4xtmtya">
            <path data-name="사각형 3465" transform="translate(1427 32)" style="fill:#fff" d="M0 0h16v16H0z"/>
        </clipPath>
    </defs>
    <g data-name="마스크 그룹 4743" transform="translate(-1427 -32)" style="clip-path:url(#gtj4xtmtya)">
        <g data-name="그룹 5556">
            <g data-name="그룹 5553" transform="translate(1427.933 34)">
                <path data-name="패스 38126" d="M-1296.961 420.021a.579.579 0 0 0 .579-.579v-5.634h9.921v5.634a.579.579 0 0 0 .579.579.579.579 0 0 0 .579-.579v-5.732a1.063 1.063 0 0 0-1.061-1.061h-10.116a1.063 1.063 0 0 0-1.061 1.061v5.731a.579.579 0 0 0 .58.58z" transform="translate(1298.855 -412.649)" style="fill:#e55132"/>
                <path data-name="패스 38127" d="M-1292.9 474.221a.892.892 0 0 0-.688-.323h-13.277a.9.9 0 0 0-.684.317.888.888 0 0 0-.2.721 3.256 3.256 0 0 0 .9 1.781 3.143 3.143 0 0 0 1.118.715.881.881 0 0 0 .313.056h10.178a.889.889 0 0 0 .227-.029 3.179 3.179 0 0 0 1.417-.8 3.2 3.2 0 0 0 .888-1.7.893.893 0 0 0-.192-.738zm-1.511 1.611a2.012 2.012 0 0 1-.865.5h-10.093a1.99 1.99 0 0 1-.664-.434 2.023 2.023 0 0 1-.5-.839h12.6a1.986 1.986 0 0 1-.474.773z" transform="translate(1307.757 -466.014)" style="fill:#e55132"/>
                <path data-name="패스 38128" d="M-1265.526 431.791a.579.579 0 0 0 .579-.579v-.819a.579.579 0 0 0-.579-.579.579.579 0 0 0-.579.579v.819a.579.579 0 0 0 .579.579z" transform="translate(1271.466 -427.604)" style="fill:#e55132"/>
                <path data-name="패스 38129" d="M-1241.377 431.212v-.819a.579.579 0 0 0-.579-.579.579.579 0 0 0-.579.579v.819a.579.579 0 0 0 .579.579.579.579 0 0 0 .579-.579z" transform="translate(1250.931 -427.604)" style="fill:#e55132"/>
                <path data-name="패스 38130" d="M-1274.027 450.112a.579.579 0 0 0-.066.816 3.951 3.951 0 0 0 2.9 1.349h.083a3.893 3.893 0 0 0 2.819-1.348.58.58 0 0 0-.067-.817.58.58 0 0 0-.816.067 2.756 2.756 0 0 1-1.961.939 2.745 2.745 0 0 1-2.079-.94.579.579 0 0 0-.813-.066z" transform="translate(1278.547 -445.17)" style="fill:#e55132"/>
                <rect data-name="사각형 3462" width="13.731" height="1.445" rx=".723" transform="translate(.723 8.99)" style="fill:#e55132"/>
            </g>
        </g>
    </g>
</svg>
