<svg width="26" height="25" viewBox="0 0 26 25" fill="none" xmlns="http://www.w3.org/2000/svg">
    <g clip-path="url(#lwg5lzam5a)">
        <path d="M11.716 24.869c-6.031 0-10.94-5.058-10.94-11.272S5.684 2.325 11.715 2.325v.683c-5.661 0-10.278 4.756-10.278 10.589s4.617 10.588 10.278 10.588c5.662 0 10.278-4.755 10.278-10.588h.663c0 6.214-4.91 11.272-10.953 11.272h.012z" fill="#000"/>
        <path d="M11.716 25C5.608 25 .647 19.876.647 13.597c0-6.28 4.974-11.403 11.069-11.403a.13.13 0 0 1 .127.131v.683a.13.13 0 0 1-.127.132c-5.598 0-10.15 4.69-10.15 10.457s4.552 10.457 10.15 10.457c5.598 0 10.15-4.69 10.15-10.457a.13.13 0 0 1 .128-.131h.663a.13.13 0 0 1 .127.13C22.784 19.89 17.811 25 11.716 25zm-.128-22.557C5.684 2.51.89 7.488.89 13.597S5.748 24.75 11.716 24.75c5.968 0 10.75-4.926 10.826-11.022h-.42c-.064 5.846-4.706 10.589-10.406 10.589S1.31 19.509 1.31 13.597c0-5.912 4.603-10.654 10.277-10.72v-.434z" fill="#000"/>
        <path d="M24.964 14.136h-13.58V.145h.331c3.545 0 6.873 1.418 9.372 3.993 2.5 2.575 3.877 6.004 3.877 9.656v.342zm-12.917-.683h12.24c-.088-3.337-1.389-6.45-3.684-8.829C18.308 2.26 15.273.92 12.034.828v12.611l.013.014z" fill="#000"/>
        <path d="M12.255 13.59V.518l2.548.33 1.982.566 2.265 1.133 1.982 1.699 1.415 1.698 1.416 2.548.85 2.548.565 2.548H12.255z" fill="#FFD7D3" stroke="#000" stroke-width=".566"/>
        <path d="M24.964 14.254h-13.58a.13.13 0 0 1-.127-.132V.132A.13.13 0 0 1 11.384 0h.332c3.57 0 6.937 1.432 9.461 4.033 2.525 2.601 3.915 6.07 3.915 9.748v.341a.13.13 0 0 1-.128.132zM11.5 13.99h13.338v-.21c0-3.613-1.365-7.002-3.851-9.564C18.512 1.668 15.21.263 11.703.263H11.5v13.741-.013zm12.79-.434H12.046a.13.13 0 0 1-.127-.13V.814s.013-.066.038-.092a.114.114 0 0 1 .09-.04c3.264.092 6.337 1.445 8.645 3.836 2.308 2.378 3.634 5.544 3.723 8.907 0 .04 0 .066-.038.092a.114.114 0 0 1-.09.04zm-12.114-.262H24.16a12.96 12.96 0 0 0-3.647-8.605c-2.231-2.299-5.202-3.639-8.352-3.744v12.349h.013z" fill="#000"/>
    </g>
    <defs>
        <clipPath id="lwg5lzam5a">
            <path fill="#fff" transform="translate(.646)" d="M0 0h25v25H0z"/>
        </clipPath>
    </defs>
</svg>
