<svg width="16" height="16" viewBox="0 0 16 16" fill="none" xmlns="http://www.w3.org/2000/svg">
    <path d="M12.592.295c0-.114-.15-.213-.326-.213-.175 0-.326.099-.326.213v1.436H9.748V.295c0-.114-.15-.213-.326-.213-.175 0-.326.099-.326.213v1.436H6.803V.295c0-.114-.15-.213-.325-.213-.176 0-.326.099-.326.213v1.436H3.746V.295c0-.114-.15-.213-.326-.213-.175 0-.325.099-.325.213v1.436H.952c-.451 0-.814.238-.814.534V15.4c0 .295.363.533.814.533h14.146c.45 0 .814-.238.814-.533V2.265c0-.296-.363-.534-.814-.534h-2.481V.295h-.025zm2.631 15.196H.777V2.158H3.07v1.501c0 .115.15.214.325.214.176 0 .326-.099.326-.214V2.158h2.406v1.501c0 .115.15.214.325.214.176 0 .326-.099.326-.214V2.158h2.293v1.436c0 .115.15.213.326.213.175 0 .326-.098.326-.213V2.158h2.192v1.575c0 .115.15.214.326.214.175 0 .326-.099.326-.214V2.158h2.631V15.49h.025z" fill="#BDBDBD"/>
    <path d="M15.073 16H.927C.413 16 0 15.73 0 15.393V2.256c0-.336.413-.607.927-.607h2.017V.295c0-.164.2-.295.451-.295s.452.131.452.295V1.65h2.167V.295c0-.164.2-.295.451-.295.25 0 .451.131.451.295V1.65h2.055V.295c0-.164.2-.295.451-.295.25 0 .451.131.451.295V1.65h1.942V.295c0-.164.2-.295.451-.295.25 0 .451.131.451.295V1.65h2.356c.513 0 .927.271.927.607v13.137c0 .336-.414.607-.927.607zM.927 1.805c-.376 0-.689.205-.689.451v13.137c0 .246.313.451.69.451h14.145c.376 0 .689-.205.689-.451V2.256c0-.246-.313-.45-.69-.45h-2.48c-.063 0-.125-.034-.125-.083V.287c0-.074-.088-.131-.2-.131-.114 0-.201.057-.201.131v1.436c0 .041-.05.082-.126.082H9.748c-.063 0-.125-.033-.125-.082V.287c0-.074-.088-.131-.2-.131-.114 0-.201.057-.201.131v1.436c0 .041-.05.082-.126.082H6.803c-.062 0-.125-.04-.125-.082V.295c0-.073-.088-.13-.2-.13-.113 0-.2.057-.2.13v1.436c0 .041-.05.082-.126.082H3.746c-.062 0-.125-.032-.125-.082V.295c0-.073-.088-.13-.2-.13-.113 0-.2.057-.2.13v1.436c0 .041-.051.082-.126.082H.952l-.025-.008zm14.296 13.76H.777c-.063 0-.125-.033-.125-.082V2.15c0-.041.05-.082.125-.082H3.07c.062 0 .125.033.125.082V3.65c0 .074.088.132.2.132.113 0 .2-.058.2-.132V2.15c0-.041.051-.082.126-.082h2.406c.063 0 .125.033.125.082V3.65c0 .074.088.132.2.132.113 0 .201-.058.201-.132V2.15c0-.041.05-.082.125-.082h2.293c.063 0 .126.033.126.082v1.436c0 .073.087.13.2.13.113 0 .2-.057.2-.13V2.15c0-.041.05-.082.126-.082h2.192c.063 0 .126.033.126.082v1.575c0 .074.087.131.2.131.113 0 .2-.057.2-.13V2.15c0-.041.05-.082.126-.082h2.631c.063 0 .125.033.125.082v13.333c0 .041-.05.082-.125.082h.025zm-14.32-.164h14.195V2.231h-2.38v1.494c0 .164-.201.296-.452.296-.25 0-.45-.132-.45-.296V2.232H9.872v1.354c0 .164-.2.295-.45.295-.252 0-.452-.131-.452-.295V2.232H6.916v1.427c0 .165-.2.296-.45.296-.251 0-.452-.131-.452-.296V2.232H3.847v1.427c0 .165-.201.296-.452.296-.25 0-.45-.131-.45-.296V2.232H.89V15.4h.012z" fill="#BDBDBD"/>
    <path d="M13.306 7.68H2.694c-.176 0-.326.099-.326.214 0 .114.15.213.326.213h10.612c.176 0 .326-.099.326-.213 0-.115-.15-.214-.326-.214z" fill="#BDBDBD"/>
    <path d="M13.306 8.189H2.693c-.25 0-.45-.131-.45-.295 0-.165.2-.296.45-.296h10.613c.25 0 .45.131.45.296 0 .164-.2.295-.45.295zM2.693 7.762c-.113 0-.2.058-.2.132 0 .073.087.13.2.13h10.613c.112 0 .2-.057.2-.13 0-.074-.088-.132-.2-.132H2.693zM2.58 10.15h10.838c.176 0 .326-.099.326-.214 0-.114-.15-.213-.325-.213H2.58c-.176 0-.326.099-.326.213 0 .115.15.214.326.214z" fill="#BDBDBD"/>
    <path d="M13.419 10.232H2.58c-.25 0-.451-.131-.451-.296 0-.164.2-.295.45-.295H13.42c.25 0 .45.131.45.295 0 .165-.2.296-.45.296zM2.58 9.805c-.113 0-.2.058-.2.131 0 .074.087.132.2.132h10.838c.113 0 .2-.058.2-.132 0-.073-.087-.13-.2-.13H2.58zM2.694 12.193h10.612c.176 0 .326-.099.326-.213 0-.115-.15-.214-.326-.214H2.694c-.176 0-.326.099-.326.213 0 .115.15.214.326.214z" fill="#BDBDBD"/>
    <path d="M13.306 12.275H2.693c-.25 0-.45-.131-.45-.296 0-.164.2-.295.45-.295h10.613c.25 0 .45.131.45.296 0 .164-.2.295-.45.295zm-10.613-.427c-.113 0-.2.058-.2.131 0 .074.087.132.2.132h10.613c.112 0 .2-.058.2-.132 0-.073-.088-.13-.2-.13H2.693z" fill="#BDBDBD"/>
</svg>
