<svg width="20" height="19" viewBox="0 0 20 19" fill="none" xmlns="http://www.w3.org/2000/svg">
    <path d="M6.875 8.313a.642.642 0 0 0-.442.173.58.58 0 0 0-.183.42.58.58 0 0 0 .183.42.642.642 0 0 0 .442.174h6.25a.642.642 0 0 0 .442-.174.579.579 0 0 0 .183-.42.579.579 0 0 0-.183-.42.642.642 0 0 0-.442-.174h-6.25zM6.25 11.28a.58.58 0 0 1 .183-.42.642.642 0 0 1 .442-.174h6.25c.166 0 .325.063.442.174a.579.579 0 0 1 .183.42.579.579 0 0 1-.183.42.642.642 0 0 1-.442.174h-6.25a.642.642 0 0 1-.442-.174.58.58 0 0 1-.183-.42zm0 2.375a.58.58 0 0 1 .183-.42.642.642 0 0 1 .442-.174h2.5c.166 0 .325.063.442.174a.58.58 0 0 1 .183.42.58.58 0 0 1-.183.42.642.642 0 0 1-.442.174h-2.5a.642.642 0 0 1-.442-.174.58.58 0 0 1-.183-.42z" fill="#333"/>
    <path d="M11.875 0H5c-.663 0-1.299.25-1.768.696A2.316 2.316 0 0 0 2.5 2.375v14.25c0 .63.263 1.234.732 1.68A2.568 2.568 0 0 0 5 19h10c.663 0 1.299-.25 1.768-.696.469-.445.732-1.05.732-1.679V5.344L11.875 0zm0 1.188v2.375c0 .472.197.925.55 1.259.35.334.828.522 1.325.522h2.5v11.281c0 .315-.132.617-.366.84a1.284 1.284 0 0 1-.884.348H5c-.332 0-.65-.126-.884-.348a1.158 1.158 0 0 1-.366-.84V2.375c0-.315.132-.617.366-.84.235-.222.552-.347.884-.347h6.875z" fill="#333"/>
</svg>
