<svg width="13" height="13" viewBox="0 0 13 13" fill="none" xmlns="http://www.w3.org/2000/svg">
    <path d="M11.02 9.293h-.893a.2.2 0 0 0-.156.074 4.49 4.49 0 0 1-3.466 1.628 4.479 4.479 0 0 1-3.181-1.317 4.485 4.485 0 0 1 0-6.356 4.492 4.492 0 0 1 3.181-1.316 4.492 4.492 0 0 1 3.466 1.628.202.202 0 0 0 .156.073h.893c.08 0 .13-.089.085-.156A5.461 5.461 0 0 0 6.49 1.04a5.453 5.453 0 0 0-5.45 5.515 5.462 5.462 0 0 0 5.464 5.403c1.931 0 3.627-1 4.6-2.51a.101.101 0 0 0-.085-.156zm1.128-2.873-1.801-1.422a.102.102 0 0 0-.165.08v.965H6.196a.102.102 0 0 0-.102.102v.71c0 .056.046.102.102.102h3.986v.965c0 .085.099.133.165.08l1.801-1.422a.1.1 0 0 0 .04-.08.1.1 0 0 0-.04-.08z" fill="#E85549"/>
</svg>
