<svg width="13" height="13" viewBox="0 0 13 13" fill="none" xmlns="http://www.w3.org/2000/svg">
    <path d="m11.74 7.943-.831-.71a4.572 4.572 0 0 0 0-1.468l.831-.711a.407.407 0 0 0 .118-.447l-.011-.033a5.635 5.635 0 0 0-1.012-1.75l-.023-.027a.408.408 0 0 0-.445-.12l-1.033.366a4.474 4.474 0 0 0-1.265-.731l-.2-1.08a.407.407 0 0 0-.327-.326L7.508.9a5.735 5.735 0 0 0-2.019 0l-.034.006a.407.407 0 0 0-.328.327l-.2 1.084c-.456.173-.88.419-1.257.729l-1.04-.37a.406.406 0 0 0-.446.12l-.022.027A5.662 5.662 0 0 0 1.15 4.574l-.012.033a.408.408 0 0 0 .118.447l.842.719a4.466 4.466 0 0 0 0 1.45l-.842.718a.407.407 0 0 0-.118.447l.012.033c.23.64.57 1.23 1.012 1.75l.022.027a.408.408 0 0 0 .446.12l1.04-.369c.378.311.8.558 1.257.729l.2 1.084a.407.407 0 0 0 .328.326l.034.007c.668.12 1.351.12 2.019 0l.034-.007a.408.408 0 0 0 .327-.326l.2-1.079c.46-.172.887-.42 1.265-.731l1.033.367a.407.407 0 0 0 .445-.12l.023-.027a5.663 5.663 0 0 0 1.012-1.751l.011-.033a.405.405 0 0 0-.118-.445zm-1.733-2.028a3.586 3.586 0 0 1 0 1.17l-.083.51.948.81a4.703 4.703 0 0 1-.54.935l-1.18-.418-.398.328a3.548 3.548 0 0 1-1.006.581l-.484.182-.227 1.231c-.359.04-.72.04-1.08 0L5.73 10.01l-.48-.184a3.552 3.552 0 0 1-.999-.58l-.398-.329-1.186.422a4.797 4.797 0 0 1-.54-.935l.958-.819-.083-.507a3.655 3.655 0 0 1 0-1.156l.083-.507-.959-.82c.144-.33.325-.643.54-.934l1.187.422.398-.329c.301-.248.638-.443 1-.58l.48-.182.228-1.234c.357-.04.72-.04 1.079 0l.227 1.232.484.181c.364.137.703.333 1.007.582l.398.327 1.178-.417c.216.29.396.604.541.934l-.948.811.082.507zM6.5 4.139a2.234 2.234 0 1 0 0 4.468 2.234 2.234 0 0 0 0-4.468zm1.005 3.24a1.417 1.417 0 0 1-1.005.416 1.417 1.417 0 0 1-1.314-.878 1.417 1.417 0 0 1 .309-1.55c.268-.269.625-.416 1.005-.416.38 0 .736.147 1.005.417a1.417 1.417 0 0 1 .416 1.005c0 .38-.148.736-.416 1.005z" fill="#E85549"/>
</svg>
