<svg width="20" height="20" viewBox="0 0 20 20" fill="none" xmlns="http://www.w3.org/2000/svg">
    <path d="M8.583 5.617a.625.625 0 0 1-.033.883L6.126 8.75 8.55 11a.625.625 0 1 1-.85.917L4.783 9.208a.625.625 0 0 1 0-.916L7.7 5.583a.625.625 0 0 1 .883.034zm2.867.883a.625.625 0 1 1 .85-.917l2.916 2.709a.625.625 0 0 1 0 .916L12.3 11.917a.626.626 0 0 1-.85-.917l2.423-2.25L11.45 6.5z" fill="#E85549"/>
    <path fill-rule="evenodd" clip-rule="evenodd" d="M1.25 3.542c0-.805.653-1.458 1.458-1.458h14.584c.805 0 1.458.653 1.458 1.458v10.416a1.458 1.458 0 0 1-1.458 1.459H9.217l-2.978 2.977a1.214 1.214 0 0 1-2.072-.858v-2.12H2.708A1.458 1.458 0 0 1 1.25 13.96V3.542zm1.458-.208a.208.208 0 0 0-.208.208v10.416c0 .115.093.209.208.209h2.084a.625.625 0 0 1 .625.625v2.658l3.1-3.1a.625.625 0 0 1 .441-.183h8.334a.208.208 0 0 0 .208-.208V3.542a.208.208 0 0 0-.208-.208H2.708z" fill="#E85549"/>
</svg>
