<svg width="20" height="20" viewBox="0 0 20 20" fill="none" xmlns="http://www.w3.org/2000/svg">
    <rect width="20" height="20" rx="4" fill="#fff"/>
    <path d="M13.477 12.149h-.687c-.047 0-.09.02-.12.056a3.458 3.458 0 0 1-5.113.24 3.45 3.45 0 0 1 0-4.89 3.456 3.456 0 0 1 3.794-.74 3.456 3.456 0 0 1 1.32.98c.028.036.073.057.12.057h.686c.061 0 .1-.069.065-.12A4.2 4.2 0 0 0 9.993 5.8a4.194 4.194 0 0 0-4.192 4.242 4.202 4.202 0 0 0 4.203 4.156c1.486 0 2.79-.77 3.538-1.93a.078.078 0 0 0-.065-.12zm.868-2.21-1.386-1.094a.078.078 0 0 0-.127.061v.742H9.766a.078.078 0 0 0-.078.079v.546c0 .043.035.079.078.079h3.066v.742c0 .065.076.102.127.061l1.386-1.093a.077.077 0 0 0 .03-.062.078.078 0 0 0-.03-.062z" fill="#E85549"/>
</svg>
