<svg width="20" height="20" viewBox="0 0 20 20" fill="none" xmlns="http://www.w3.org/2000/svg">
    <path d="M14.585 1.779a.833.833 0 0 1 .415.72v3.334a3.326 3.326 0 0 1 2.485 1.11c.547.612.85 1.403.849 2.223 0 .854-.322 1.634-.85 2.223A3.326 3.326 0 0 1 15 12.499v3.334a.833.833 0 0 1-1.246.723l-5.42-3.096v4.04a.833.833 0 0 1-.834.833H4.167a.833.833 0 0 1-.833-.833v-4.167a1.667 1.667 0 0 1-1.667-1.667v-5A1.667 1.667 0 0 1 3.334 5h4.778l5.642-3.224a.833.833 0 0 1 .831.003zm-6.251 9.887c.145 0 .287.038.413.11l4.587 2.621V3.936l-4.587 2.62a.833.833 0 0 1-.413.11h-5v5h5zM5 13.333v3.333h1.667v-3.333H5zm10-2.5a1.66 1.66 0 0 0 1.243-.556c.264-.295.424-.683.424-1.11 0-.428-.16-.816-.424-1.111A1.66 1.66 0 0 0 15 7.5v3.333z" fill="#E85549"/>
</svg>
