<svg xmlns="http://www.w3.org/2000/svg" width="24" height="24" viewBox="0 0 24 24">
    <defs>
        <clipPath id="0heszn43ia">
            <path data-name="사각형 3503" transform="translate(167 292)" style="fill:#fff;stroke:#707070" d="M0 0h24v24H0z"/>
        </clipPath>
        <clipPath id="g1fw3jdu1b">
            <path data-name="사각형 3318" transform="translate(1648 288)" style="fill:#d1d1d1" d="M0 0h18v18H0z"/>
        </clipPath>
    </defs>
    <g data-name="마스크 그룹 4781" transform="translate(-167 -292)" style="clip-path:url(#0heszn43ia)">
        <g data-name="마스크 그룹 4652" transform="translate(-1478 7)" style="clip-path:url(#g1fw3jdu1b)">
            <g data-name="그룹 4883">
                <path data-name="패스 14955" d="M83.4 248.154a6.957 6.957 0 0 0-1.865-1.535 7.167 7.167 0 0 0-1.845-.714c-.066-.016-.133-.028-.2-.041v1.584a5.623 5.623 0 0 1 1.464.616 5.325 5.325 0 1 1-7.015 1.308 5.422 5.422 0 0 1 1.415-1.287 5.06 5.06 0 0 1 1.436-.623l.06-.013v-1.58c-.067.011-.133.021-.2.035a6.487 6.487 0 0 0-1.333.449 7.176 7.176 0 0 0-1.724 1.125 6.881 6.881 0 0 0 3.638 11.954 6.939 6.939 0 0 0 .942.065 6.881 6.881 0 0 0 6.878-6.883 6.909 6.909 0 0 0-1.651-4.46zm-8.157-.235zm-1.438-.361-.08.07zm-2.317 5.131a6.669 6.669 0 0 0 .069.883 6.669 6.669 0 0 1-.067-.884z" transform="translate(1578.829 45.003)" style="fill:#e55b3d"/>
                <g data-name="그룹 4802">
                    <g data-name="그룹 4801">
                        <g data-name="그룹 4799">
                            <path data-name="패스 14956" d="M118.233 241.1a.9.9 0 0 0 .5-.142.428.428 0 0 0 .208-.345l.012-4.01a.431.431 0 0 0-.207-.346.943.943 0 0 0-1 0 .436.436 0 0 0-.211.343l-.012 4.01a.426.426 0 0 0 .207.346.9.9 0 0 0 .503.144z" transform="translate(1538.759 53.457)" style="fill:#e55b3d"/>
                        </g>
                        <g data-name="그룹 4800">
                            <path data-name="패스 14957" d="M117.8 240.731a.971.971 0 0 1-.54-.157.49.49 0 0 1-.235-.4l.012-4.01a.5.5 0 0 1 .24-.4 1.01 1.01 0 0 1 1.079 0 .5.5 0 0 1 .236.4l-.012 4.01a.492.492 0 0 1-.237.4.969.969 0 0 1-.543.157zm.008-4.988a.844.844 0 0 0-.456.132.372.372 0 0 0-.181.29l-.012 4.008a.362.362 0 0 0 .178.291.888.888 0 0 0 .931 0 .364.364 0 0 0 .179-.29l.012-4.01a.366.366 0 0 0-.178-.291.841.841 0 0 0-.473-.13z" transform="translate(1539.192 53.89)" style="fill:#e55b3d"/>
                        </g>
                    </g>
                </g>
            </g>
        </g>
    </g>
</svg>
