<svg width="16" height="16" viewBox="0 0 16 16" fill="none" xmlns="http://www.w3.org/2000/svg">
    <path d="M15.701 12.995H.297c-.116 0-.215-.108-.215-.235V.325c0-.126.1-.235.215-.235h15.404c.116 0 .215.109.215.235V12.76c0 .127-.099.235-.215.235zm-15.189-.47h14.966V.56H.512v11.966z" fill="#BDBDBD"/>
    <path d="M15.702 13.085H.298c-.166 0-.298-.144-.298-.325V.325C0 .145.132 0 .298 0h15.404c.165 0 .298.144.298.325V12.76c0 .18-.133.325-.298.325zM.298.171C.223.171.166.235.166.316V12.75c0 .082.057.145.132.145h15.404c.075 0 .132-.064.132-.145V.316c0-.081-.057-.145-.132-.145H.298zm15.189 12.436H.52c-.04 0-.082-.036-.082-.09V.55C.439.505.472.46.52.46h14.966c.041 0 .083.036.083.09v11.967c0 .045-.034.09-.083.09zm-14.883-.18h14.808V.64H.604v11.785z" fill="#BDBDBD"/>
    <path d="M6.017 15.702c-.116 0-.215-.108-.215-.235V12.77c0-.126.099-.234.215-.234.116 0 .215.108.215.234v2.698c0 .127-.1.235-.215.235z" fill="#BDBDBD"/>
    <path d="M6.017 15.784c-.166 0-.298-.145-.298-.325V12.76c0-.18.132-.325.298-.325.165 0 .298.145.298.325v2.699c0 .18-.133.325-.298.325zm0-3.177c-.075 0-.133.063-.133.144v2.699c0 .08.058.144.133.144.074 0 .132-.063.132-.144V12.75c0-.08-.058-.144-.132-.144zM9.998 15.702c-.115 0-.215-.108-.215-.235V12.77c0-.126.1-.234.215-.234.116 0 .216.108.216.234v2.698c0 .127-.1.235-.216.235z" fill="#BDBDBD"/>
    <path d="M9.998 15.784c-.165 0-.298-.145-.298-.325V12.76c0-.18.133-.325.298-.325.166 0 .298.145.298.325v2.699c0 .18-.132.325-.298.325zm0-3.177c-.074 0-.132.063-.132.144v2.699c0 .08.058.144.132.144.075 0 .133-.063.133-.144V12.75c0-.08-.058-.144-.133-.144zM15.478 10.83H.306c-.116 0-.215-.11-.215-.236s.1-.234.215-.234h15.172c.116 0 .216.108.216.235 0 .126-.1.234-.216.234z" fill="#BDBDBD"/>
    <path d="M15.478 10.92H.306c-.166 0-.298-.145-.298-.326 0-.18.132-.324.298-.324h15.172c.166 0 .298.144.298.324 0 .18-.132.325-.298.325zM.306 10.45c-.075 0-.133.063-.133.144 0 .082.058.145.133.145h15.172c.075 0 .133-.063.133-.145 0-.08-.058-.144-.133-.144H.306zM11.878 15.918H4.106c-.116 0-.215-.108-.215-.234 0-.127.099-.235.215-.235h7.772c.116 0 .215.108.215.235 0 .126-.1.235-.215.235z" fill="#BDBDBD"/>
    <path d="M11.878 16H4.106c-.166 0-.298-.145-.298-.325 0-.18.132-.325.298-.325h7.772c.165 0 .298.145.298.325 0 .18-.133.325-.298.325zm-7.772-.47c-.075 0-.133.064-.133.145 0 .081.058.144.133.144h7.772c.074 0 .132-.063.132-.144 0-.081-.058-.144-.132-.144H4.106z" fill="#BDBDBD"/>
</svg>
