<svg width="76" height="27" viewBox="0 0 76 27" fill="none" xmlns="http://www.w3.org/2000/svg">
    <path d="M37.804 19.889a74.639 74.639 0 0 1-.649-1.785c-.203-.595-.412-1.197-.629-1.806h-6.37l-1.278 3.59H26.83c.541-1.487 1.048-2.86 1.522-4.117.473-1.272.933-2.475 1.38-3.611.46-1.136.912-2.218 1.358-3.246a79.4 79.4 0 0 1 1.4-3.084h1.806a79.7 79.7 0 0 1 1.4 3.084c.446 1.028.892 2.11 1.339 3.246.46 1.136.926 2.34 1.4 3.61.473 1.259.98 2.631 1.52 4.119h-2.15zm-1.846-5.214a153.35 153.35 0 0 0-1.298-3.408 53.734 53.734 0 0 0-1.319-3.185 53.596 53.596 0 0 0-1.359 3.185 155.93 155.93 0 0 0-1.258 3.408h5.234zm8.949 5.417c-1.163-.027-1.988-.277-2.475-.75-.487-.474-.73-1.211-.73-2.212V4.47l1.886-.324v12.68c0 .31.027.568.081.77.054.203.142.366.264.487.122.122.284.217.487.284.203.055.453.102.75.142l-.263 1.583zm5.547 0c-1.163-.027-1.988-.277-2.475-.75-.487-.474-.73-1.211-.73-2.212V4.47l1.886-.324v12.68c0 .31.027.568.081.77.054.203.142.366.264.487.122.122.284.217.487.284.203.055.453.102.75.142l-.263 1.583z" fill="#fff"/>
    <path d="M52.897 5.83h2.556V19.89h-2.556V5.83zm8.48 11.95c.149.013.345.026.588.04h.994c1.718 0 2.996-.433 3.834-1.299.852-.879 1.279-2.103 1.279-3.672 0-1.595-.413-2.82-1.238-3.672C66.01 8.325 64.731 7.9 63 7.9c-.758 0-1.298.02-1.623.061v9.82zm9.372-4.93c0 1.217-.189 2.278-.568 3.184a6.062 6.062 0 0 1-1.623 2.252c-.69.595-1.528 1.042-2.515 1.34-.974.283-2.056.425-3.246.425-.568 0-1.21-.027-1.927-.08-.717-.041-1.4-.136-2.05-.285V6.033c.65-.149 1.34-.243 2.07-.284.73-.04 1.38-.06 1.947-.06 1.177 0 2.252.141 3.226.425.974.27 1.806.703 2.495 1.298.704.582 1.245 1.326 1.623 2.232.38.893.568 1.961.568 3.205z" fill="#6D231D"/>
    <path d="m9.491 1.04 12.747 3.481v12.187L9.491 13.227V1.041zM8.674.002v13.82l14.381 3.927V3.928L8.674.001z" fill="#fff"/>
    <g filter="url(#apl8rn6hsa)">
        <path d="M16.381 24 2 20.073V6.253l14.381 3.927V24z" fill="#fff"/>
    </g>
    <path d="m8.913.883 12.581 3.435-5.35 5.142L3.561 6.024 8.912.883zM8.674 0 2 6.413l14.381 3.927 6.675-6.413L8.674 0zM17.191 23.544l5.87-5.81-5.87-1.75v7.56z" fill="#fff"/>
    <defs>
        <filter id="apl8rn6hsa" x=".021" y="5.264" width="18.339" height="21.704" filterUnits="userSpaceOnUse" color-interpolation-filters="sRGB">
            <feFlood flood-opacity="0" result="BackgroundImageFix"/>
            <feColorMatrix in="SourceAlpha" values="0 0 0 0 0 0 0 0 0 0 0 0 0 0 0 0 0 0 127 0" result="hardAlpha"/>
            <feOffset dy=".989"/>
            <feGaussianBlur stdDeviation=".989"/>
            <feColorMatrix values="0 0 0 0 0 0 0 0 0 0 0 0 0 0 0 0 0 0 0.161 0"/>
            <feBlend in2="BackgroundImageFix" result="effect1_dropShadow_111_518"/>
            <feBlend in="SourceGraphic" in2="effect1_dropShadow_111_518" result="shape"/>
        </filter>
    </defs>
</svg>
