<svg xmlns="http://www.w3.org/2000/svg" width="24" height="16" viewBox="0 0 24 16">
    <defs>
        <clipPath id="a4g2xqi6ma">
            <path data-name="사각형 3491" transform="translate(63 1200)" style="fill:#fff;stroke:#707070" d="M0 0h24v16H0z"/>
        </clipPath>
    </defs>
    <g data-name="마스크 그룹 4768" transform="translate(-63 -1200)" style="clip-path:url(#a4g2xqi6ma)">
        <g data-name="그룹 5561">
            <g data-name="그룹 5395">
                <g data-name="그룹 5394">
                    <path data-name="패스 38102" d="M428.924 165.493v-2.1a1.755 1.755 0 0 0-.262-.928 1.736 1.736 0 0 0-.7-.646 1.853 1.853 0 0 0-.984-.249 1.875 1.875 0 0 0-.974.307l-1.133.781a.519.519 0 0 1-.323.1h-4.415a1.81 1.81 0 0 0-1.81 1.809v6.895a1.809 1.809 0 0 0 1.848 1.809h4.429a.515.515 0 0 1 .324.1l1.122.774a1.855 1.855 0 0 0 1.064.333h.017a1.926 1.926 0 0 0 .881-.214 1.761 1.761 0 0 0 .972-1.58v-2.175a2.584 2.584 0 0 0-.054-5.02zm.391 3.319a1.3 1.3 0 0 1-.391.331v-2.259a1.289 1.289 0 0 1 .391 1.928z" transform="translate(-351.924 1039.974)" style="fill:#9f9f9f"/>
                </g>
            </g>
        </g>
    </g>
</svg>
