<svg width="20" height="20" viewBox="0 0 20 20" fill="none" xmlns="http://www.w3.org/2000/svg">
    <rect width="20" height="20" rx="4" fill="#fff"/>
    <path d="M10 14.166c1.657 0 3.334-.572 3.334-1.666v-5c0-1.094-1.677-1.667-3.334-1.667-1.656 0-3.333.573-3.333 1.667v5c0 1.094 1.677 1.666 3.333 1.666zm0-.833c-1.55 0-2.5-.54-2.5-.833v-.529c.642.35 1.574.529 2.5.529.927 0 1.858-.18 2.5-.529v.529c0 .293-.949.833-2.5.833zm0-6.667c1.551 0 2.5.54 2.5.834 0 .293-.949.833-2.5.833-1.55 0-2.5-.54-2.5-.833 0-.294.95-.834 2.5-.834zM7.5 8.638c.642.35 1.574.528 2.5.528.927 0 1.858-.179 2.5-.528v.528c0 .294-.949.834-2.5.834-1.55 0-2.5-.54-2.5-.834v-.528zm0 1.667c.642.349 1.574.528 2.5.528.927 0 1.858-.18 2.5-.528v.528c0 .294-.949.833-2.5.833-1.55 0-2.5-.54-2.5-.833v-.528z" fill="#E85549"/>
</svg>
