<svg width="20" height="20" viewBox="0 0 20 20" fill="none" xmlns="http://www.w3.org/2000/svg">
    <path d="M10 1.429a8.571 8.571 0 1 1 0 17.142 8.571 8.571 0 0 1 0-17.142zM10 0a10 10 0 1 0 0 20 10 10 0 0 0 0-20z" fill="#fff"/>
    <path fill-rule="evenodd" clip-rule="evenodd" d="M6.624 14.79a.624.624 0 0 0 .765.133l7.96-4.285c.11-.06.202-.15.267-.263a.755.755 0 0 0 0-.75.684.684 0 0 0-.267-.264l-7.96-4.286a.624.624 0 0 0-.645.032.694.694 0 0 0-.23.26.758.758 0 0 0-.084.347v8.571c0 .19.07.371.194.505z" fill="#fff"/>
    <path d="M7.093 15v.5-.5zm-.47-.21-.365.34.366-.34zm.766.134-.237-.44.237.44zm7.96-4.286.237.44-.237-.44zm.267-.263-.434-.249.434.249zm0-.75-.434.248.434-.249zm-.267-.264.237-.44-.237.44zm-7.96-4.286.237-.44-.237.44zm-.645.032-.277-.417.277.417zm-.23.26-.444-.23.444.23zm-.084.347h-.5.5zm.663 8.786a.14.14 0 0 1-.103-.05l-.732.68c.214.232.514.37.835.37v-1zm.059-.016a.125.125 0 0 1-.06.016l.002 1c.187 0 .37-.048.533-.136l-.475-.88zm7.96-4.286-7.96 4.286.474.88 7.96-4.286-.475-.88zm.07-.072a.185.185 0 0 1-.07.072l.474.88c.195-.105.354-.264.463-.454l-.867-.498zm.033-.126a.257.257 0 0 1-.033.126l.867.498c.11-.19.166-.406.166-.624h-1zm-.033-.127c.02.036.033.08.033.127h1c0-.218-.057-.434-.166-.624l-.867.497zm-.07-.072c.024.013.05.037.07.072l.867-.497a1.184 1.184 0 0 0-.463-.455l-.475.88zm-7.96-4.285 7.96 4.285.474-.88-7.96-4.286-.474.88zM7.087 5.5a.124.124 0 0 1 .065.016l.474-.881a1.124 1.124 0 0 0-.587-.134l.048 1zm-.066.023a.13.13 0 0 1 .066-.023l-.048-.999a1.13 1.13 0 0 0-.572.19l.554.832zm-.063.073a.195.195 0 0 1 .063-.073l-.554-.833c-.169.113-.305.268-.397.446l.888.46zm-.028.118c0-.043.01-.084.028-.118l-.888-.46c-.093.179-.14.377-.14.578h1zm0 8.571V5.714h-1v8.571h1zm.06.165a.244.244 0 0 1-.06-.165h-1c0 .31.114.616.328.846l.732-.68z" fill="#fff"/>
</svg>
