<svg width="44" height="44" viewBox="0 0 44 44" fill="none" xmlns="http://www.w3.org/2000/svg">
    <path d="M16.5 30.5V14L31 22.5l-14.5 8z" fill="#FFD7D3"/>
    <path d="M22.001 43.797C9.997 43.797.227 34.027.227 22.022.227 10.018 9.997.248 22 .248c12.004 0 21.774 9.77 21.774 21.774 0 12.005-9.77 21.775-21.774 21.775zm0-42.376C10.651 1.421 1.4 10.673 1.4 22.022 1.4 33.372 10.65 42.623 22 42.623s20.601-9.25 20.601-20.6c0-11.35-9.251-20.602-20.601-20.602z" fill="#000"/>
    <path d="M22 44C9.86 44 0 34.14 0 22S9.86 0 22 0s22 9.86 22 22-9.86 22-22 22zM22 .429C10.109.429.429 10.109.429 21.977c0 11.87 9.68 21.572 21.571 21.572 11.891 0 21.549-9.68 21.549-21.572C43.549 10.087 33.869.43 22 .43zm0 42.375c-11.485 0-20.827-9.342-20.827-20.827C1.173 10.492 10.515 1.151 22 1.151c11.485 0 20.827 9.341 20.827 20.826 0 11.485-9.342 20.827-20.827 20.827zm0-41.202c-11.237 0-20.375 9.139-20.375 20.375 0 11.237 9.138 20.376 20.375 20.376s20.375-9.139 20.375-20.376c0-11.236-9.138-20.375-20.375-20.375z" fill="#000"/>
    <path d="M15.772 31.928s-.203-.023-.293-.068a.597.597 0 0 1-.293-.519V12.658c0-.203.112-.406.293-.519a.55.55 0 0 1 .587 0l15.974 9.342c.18.113.294.293.294.519a.597.597 0 0 1-.294.519L16.066 31.86s-.203.09-.294.09v-.022zm.587-18.232v16.607L30.574 22l-14.215-8.304z" fill="#000"/>
    <path d="M15.771 32.154a.844.844 0 0 1-.406-.113.797.797 0 0 1-.406-.7V12.659c0-.293.158-.564.406-.699a.863.863 0 0 1 .812 0L32.152 21.3a.797.797 0 0 1 .406.7.797.797 0 0 1-.406.7L16.177 32.04a.919.919 0 0 1-.406.113zm0-19.857s-.135 0-.18.045a.36.36 0 0 0-.18.316v18.684a.36.36 0 0 0 .18.315.346.346 0 0 0 .36 0l15.976-9.341s.18-.18.18-.316a.36.36 0 0 0-.18-.316l-15.975-9.342s-.113-.045-.18-.045zm.587 18.232s-.068 0-.113-.022a.237.237 0 0 1-.113-.203V13.696s.045-.157.113-.203a.205.205 0 0 1 .226 0l14.214 8.304s.113.113.113.18c0 .068-.045.158-.113.18l-14.214 8.305s-.068.022-.113.022v.045zm.226-16.449v15.84L30.12 22l-13.537-7.92z" fill="#000"/>
</svg>
