<svg width="25" height="25" viewBox="0 0 25 25" fill="none" xmlns="http://www.w3.org/2000/svg">
    <g clip-path="url(#9kfeg9rh6a)">
        <path d="M9.35 17.284v-9.35l8.216 4.816-8.216 4.534z" fill="#FFD7D3"/>
        <path d="M12.502 24.885C5.682 24.885.13 19.333.13 12.513S5.68.14 12.502.14c6.82 0 12.371 5.551 12.371 12.372 0 6.82-5.55 12.372-12.371 12.372zm0-24.077C6.053.808.797 6.064.797 12.513s5.256 11.705 11.705 11.705c6.448 0 11.705-5.256 11.705-11.705S18.95.808 12.502.808z" fill="#000"/>
        <path d="M12.501 25c-6.897 0-12.5-5.603-12.5-12.5S5.604 0 12.501 0s12.5 5.603 12.5 12.5S19.398 25 12.501 25zm0-24.756C5.745.244.245 5.744.245 12.487c0 6.744 5.5 12.257 12.256 12.257s12.244-5.5 12.244-12.257c0-6.756-5.5-12.243-12.244-12.243zm0 24.076C5.975 24.32.668 19.014.668 12.487.668 5.962 5.975.654 12.5.654s11.833 5.308 11.833 11.833c0 6.526-5.307 11.833-11.833 11.833zm0-23.41C6.116.91.924 6.103.924 12.487c0 6.385 5.192 11.577 11.577 11.577s11.577-5.192 11.577-11.577C24.078 6.103 18.886.91 12.5.91z" fill="#000"/>
        <path d="M8.962 18.141s-.115-.012-.166-.038a.34.34 0 0 1-.167-.295V7.193c0-.116.064-.231.167-.295a.313.313 0 0 1 .333 0l9.076 5.307a.34.34 0 0 1 .167.295.34.34 0 0 1-.167.295L9.13 18.103s-.115.051-.167.051v-.013zm.334-10.359v9.436l8.076-4.718-8.076-4.718z" fill="#000"/>
        <path d="M8.961 18.27a.48.48 0 0 1-.23-.065.453.453 0 0 1-.231-.397V7.192c0-.166.09-.32.23-.397a.49.49 0 0 1 .462 0l9.077 5.308c.14.077.23.23.23.397s-.09.32-.23.398l-9.077 5.307a.522.522 0 0 1-.23.064zm0-11.283s-.076 0-.102.026a.205.205 0 0 0-.103.18v10.615c0 .077.039.14.103.18a.197.197 0 0 0 .205 0l9.077-5.308s.102-.103.102-.18a.205.205 0 0 0-.102-.18L9.064 7.014S9 6.987 8.961 6.987zm.334 10.36s-.039 0-.064-.014a.135.135 0 0 1-.064-.115V7.782s.025-.09.064-.115a.116.116 0 0 1 .128 0l8.077 4.718s.064.064.064.102c0 .039-.026.09-.064.103l-8.077 4.718s-.039.013-.064.013v.025zM9.423 8v9l7.692-4.5L9.423 8z" fill="#000"/>
    </g>
    <defs>
        <clipPath id="9kfeg9rh6a">
            <path fill="#fff" d="M0 0h25v25H0z"/>
        </clipPath>
    </defs>
</svg>
