<svg width="25" height="25" viewBox="0 0 25 25" fill="none" xmlns="http://www.w3.org/2000/svg">
    <g clip-path="url(#sn14vx7g9a)">
        <path d="M15.533 10.985c-3.935 0-7.132-2.436-7.132-5.434S11.598.117 15.533.117c3.935 0 7.132 2.436 7.132 5.434s-3.197 5.434-7.132 5.434zm0-10.247c-3.489 0-6.317 2.166-6.317 4.813s2.843 4.813 6.317 4.813 6.317-2.166 6.317-4.813S19.007.738 15.533.738z" fill="#000"/>
        <path d="M15.532 11.102c-4.011 0-7.285-2.495-7.285-5.551C8.247 2.494 11.521 0 15.532 0c4.012 0 7.286 2.483 7.286 5.551s-3.259 5.55-7.286 5.55zm0-10.868c-3.842 0-6.978 2.39-6.978 5.317 0 2.928 3.136 5.317 6.978 5.317 3.843 0 6.978-2.39 6.978-5.317 0-2.928-3.135-5.317-6.978-5.317zm0 10.247c-3.565 0-6.47-2.213-6.47-4.93 0-2.717 2.905-4.93 6.47-4.93 3.566 0 6.471 2.213 6.471 4.93 0 2.717-2.905 4.93-6.47 4.93zm0-9.638c-3.396 0-6.178 2.108-6.178 4.708s2.766 4.708 6.178 4.708c3.413 0 6.179-2.108 6.179-4.708S18.945.843 15.532.843z" fill="#000"/>
        <path d="M24.462 22.264H6.956c-.215 0-.4-.141-.4-.305v-4.602c0-3.841 4.104-6.98 9.161-6.98 5.057 0 9.16 3.127 9.16 6.98v4.602c0 .164-.184.305-.4.305h-.015zm-17.106-.61h16.691v-4.297c0-3.514-3.75-6.36-8.345-6.36-4.596 0-8.346 2.858-8.346 6.36v4.297z" fill="#000"/>
        <path d="M24.463 22.38H6.957c-.308 0-.554-.187-.554-.422v-4.602c0-3.911 4.18-7.085 9.299-7.085 5.118 0 9.299 3.185 9.299 7.085v4.602c0 .235-.246.422-.553.422h.015zm-8.746-11.886c-4.964 0-9.006 3.08-9.006 6.862v4.602c0 .106.107.188.246.188h17.506c.138 0 .246-.082.246-.188v-4.602c0-3.783-4.043-6.863-9.007-6.863h.015zm8.346 11.277H7.372c-.077 0-.154-.047-.154-.117v-4.298c0-3.572 3.812-6.476 8.5-6.476 4.687 0 8.499 2.904 8.499 6.476v4.298c0 .058-.061.117-.154.117zM7.51 21.537h16.4v-4.18c0-3.444-3.674-6.243-8.193-6.243-4.518 0-8.192 2.8-8.192 6.242v4.18H7.51z" fill="#000"/>
        <path d="M9.886 19.791c0 2.679-2.136 4.84-4.76 4.84-2.622 0-4.758-2.161-4.758-4.84 0-2.678 2.136-4.84 4.759-4.84s4.759 2.162 4.759 4.84z" fill="#FFD7D3" stroke="#000" stroke-width=".736"/>
        <path d="m3.076 19.445 1.71 1.736 2.734-2.778" stroke="#000" stroke-width=".736" stroke-linecap="round"/>
    </g>
    <defs>
        <clipPath id="sn14vx7g9a">
            <path fill="#fff" d="M0 0h25v25H0z"/>
        </clipPath>
    </defs>
</svg>
