<svg width="33" height="44" viewBox="0 0 33 44" fill="none" xmlns="http://www.w3.org/2000/svg">
    <path d="M20.504 19.267c-5.194 0-9.414-4.272-9.414-9.53 0-5.259 4.22-9.531 9.414-9.531s9.414 4.272 9.414 9.53c0 5.259-4.22 9.531-9.414 9.531zm0-17.973c-4.606 0-8.339 3.8-8.339 8.442 0 4.643 3.754 8.443 8.339 8.443 4.585 0 8.338-3.8 8.338-8.443 0-4.642-3.753-8.442-8.338-8.442z" fill="#000"/>
    <path d="M20.503 19.473c-5.295 0-9.616-4.375-9.616-9.737 0-5.36 4.321-9.736 9.616-9.736C25.8 0 30.12 4.355 30.12 9.736c0 5.382-4.3 9.737-9.617 9.737zm0-19.062c-5.072 0-9.21 4.19-9.21 9.325 0 5.135 4.138 9.326 9.21 9.326 5.073 0 9.211-4.19 9.211-9.326 0-5.135-4.138-9.325-9.21-9.325zm0 17.973c-4.707 0-8.541-3.882-8.541-8.648 0-4.765 3.835-8.647 8.541-8.647 4.707 0 8.542 3.882 8.542 8.647 0 4.766-3.835 8.648-8.542 8.648zm0-16.905c-4.483 0-8.156 3.697-8.156 8.257s3.652 8.258 8.156 8.258c4.505 0 8.156-3.698 8.156-8.258 0-4.56-3.651-8.257-8.155-8.257z" fill="#000"/>
    <path d="M32.29 39.048H9.183a.54.54 0 0 1-.528-.534v-8.073c0-6.737 5.417-12.242 12.092-12.242 6.675 0 12.092 5.485 12.092 12.242v8.073a.54.54 0 0 1-.527.534h-.02zM9.71 37.98h22.033v-7.538c0-6.163-4.95-11.154-11.017-11.154-6.066 0-11.017 5.012-11.017 11.154v7.538z" fill="#000"/>
    <path d="M32.29 39.253H9.182a.732.732 0 0 1-.73-.74v-8.072c0-6.86 5.518-12.427 12.274-12.427C27.482 18.014 33 23.601 33 30.441v8.073c0 .41-.324.74-.73.74h.02zM20.746 18.404c-6.553 0-11.889 5.403-11.889 12.037v8.073c0 .185.142.328.325.328H32.29a.322.322 0 0 0 .325-.328V30.44c0-6.634-5.336-12.037-11.89-12.037h.021zm11.017 19.781H9.729a.205.205 0 0 1-.203-.205V30.44c0-6.265 5.032-11.359 11.22-11.359 6.188 0 11.22 5.094 11.22 11.36v7.538a.205.205 0 0 1-.203.205zm-21.851-.41H31.56V30.44c0-6.039-4.85-10.948-10.814-10.948-5.965 0-10.814 4.91-10.814 10.948v7.333h-.02z" fill="#000"/>
    <path d="M17.46 34.833c0 4.711-3.771 8.517-8.405 8.517C4.42 43.35.65 39.544.65 34.833c0-4.711 3.77-8.516 8.405-8.516 4.634 0 8.404 3.805 8.404 8.516z" fill="#FFD7D3" stroke="#000" stroke-width="1.3"/>
    <path d="m5.434 34.222 3.018 3.056 4.829-4.89" stroke="#000" stroke-width="1.3" stroke-linecap="round"/>
</svg>
