<svg width="16" height="16" viewBox="0 0 16 16" fill="none" xmlns="http://www.w3.org/2000/svg">
    <path d="M2.666 12.667V5.334h10.667v2.193c.48.146.933.36 1.333.647v-2.84c0-.74-.593-1.334-1.333-1.334h-2.667V2.667c0-.74-.593-1.333-1.333-1.333H6.666c-.74 0-1.333.593-1.333 1.333V4H2.666c-.74 0-1.326.593-1.326 1.333l-.007 7.334c0 .74.593 1.333 1.333 1.333h5.12c-.2-.413-.333-.86-.4-1.333h-4.72zm4-10h2.667V4H6.666V2.667z" fill="#E85549"/>
    <path d="M12 8.666a3.335 3.335 0 0 0 0 6.667 3.335 3.335 0 0 0 0-6.667zm1.1 4.9-1.433-1.433V10h.667v1.86l1.233 1.233-.467.473z" fill="#E85549"/>
</svg>
