<svg width="26" height="25" viewBox="0 0 26 25" fill="none" xmlns="http://www.w3.org/2000/svg">
    <g clip-path="url(#jtlrrj2bba)">
        <path d="M18.714 3.278 16.214 3l.357 1.111.358 1.389.357 1.667-1.072 1.666-1.785 1.945L13 11.888l1.071.556 2.143.556h2.143l2.5-1.389 1.429-1.389L23 8l-.357-1.944-1.786-1.945-2.143-.833zM18.88 13H16l1.8 1.974 1.08 1.693.72.846V24H25v-5.923l-1.08-2.257-2.16-1.692L18.88 13z" fill="#FFD7D3"/>
        <path d="M24.827 24.883h-5.7c-.223 0-.414-.157-.414-.34 0-.184.191-.341.414-.341h5.287v-4.28c0-3.495-3.392-6.348-7.58-6.348-.43 0-.86.026-1.274.091-.223.027-.446-.091-.478-.274-.031-.184.112-.367.335-.393.462-.066.94-.105 1.417-.105 4.634 0 8.407 3.154 8.407 7.029v4.62c0 .183-.19.34-.414.34z" fill="#000"/>
        <path d="M24.827 25h-5.7c-.319 0-.573-.21-.573-.47 0-.263.254-.472.573-.472h5.127v-4.15c0-3.429-3.328-6.217-7.42-6.217-.414 0-.844.027-1.242.092-.319.04-.605-.13-.669-.38a.377.377 0 0 1 .096-.353.644.644 0 0 1 .366-.196c.478-.066.955-.105 1.449-.105 4.729 0 8.566 3.207 8.566 7.16v4.62c0 .262-.254.471-.573.471zm-5.7-.68c-.143 0-.255.091-.255.21 0 .117.111.209.255.209h5.7c.143 0 .255-.092.255-.21v-4.62c0-3.81-3.71-6.911-8.248-6.911-.462 0-.94.039-1.385.091-.064 0-.128.04-.176.092a.3.3 0 0 0-.047.157c.031.118.159.196.302.17.43-.065.86-.091 1.306-.091 4.267 0 7.738 2.905 7.738 6.479v4.28c0 .065-.063.13-.159.13h-5.286v.014zM9.873 12.278c-4.077 0-7.389-2.722-7.389-6.073 0-3.35 3.312-6.073 7.389-6.073 4.076 0 7.388 2.722 7.388 6.073 0 3.35-3.312 6.073-7.388 6.073zm0-11.452c-3.615 0-6.545 2.421-6.545 5.38 0 2.957 2.946 5.379 6.545 5.379 3.598 0 6.544-2.422 6.544-5.38 0-2.958-2.946-5.38-6.544-5.38z" fill="#000"/>
        <path d="M9.874 12.409c-4.156 0-7.548-2.788-7.548-6.204C2.326 2.788 5.718 0 9.874 0c4.156 0 7.547 2.775 7.547 6.205 0 3.429-3.391 6.204-7.547 6.204zm0-12.147c-3.981 0-7.23 2.67-7.23 5.943 0 3.272 3.249 5.942 7.23 5.942 3.98 0 7.229-2.67 7.229-5.942 0-3.273-3.249-5.943-7.23-5.943zm0 11.453c-3.694 0-6.704-2.474-6.704-5.51 0-3.037 3.01-5.51 6.704-5.51s6.703 2.473 6.703 5.51c0 3.036-3.01 5.51-6.703 5.51zm0-10.772c-3.52 0-6.401 2.356-6.401 5.262 0 2.905 2.866 5.261 6.4 5.261 3.536 0 6.402-2.356 6.402-5.261 0-2.906-2.866-5.262-6.401-5.262z" fill="#000"/>
        <path d="M19.11 24.883H.976c-.223 0-.414-.158-.414-.34v-5.145c0-4.293 4.251-7.8 9.49-7.8 5.238 0 9.49 3.494 9.49 7.8v5.144c0 .183-.191.34-.414.34h-.016zM1.39 24.201H18.68v-4.804c0-3.926-3.885-7.107-8.646-7.107-4.761 0-8.646 3.194-8.646 7.107v4.804z" fill="#000"/>
        <path d="M19.11 25H.976C.656 25 .4 24.79.4 24.53v-5.145c0-4.372 4.331-7.919 9.634-7.919 5.302 0 9.633 3.56 9.633 7.92v5.143c0 .262-.255.471-.573.471h.016zm-9.06-13.285c-5.142 0-9.33 3.442-9.33 7.67v5.144c0 .118.111.21.255.21H19.11c.143 0 .255-.092.255-.21v-5.144c0-4.228-4.188-7.67-9.331-7.67h.016zm8.647 12.605H1.405c-.08 0-.16-.053-.16-.131v-4.804c0-3.992 3.95-7.238 8.806-7.238 4.856 0 8.805 3.246 8.805 7.238v4.804c0 .065-.064.13-.16.13zm-17.15-.262h16.99v-4.673c0-3.848-3.805-6.976-8.486-6.976-4.682 0-8.487 3.128-8.487 6.976v4.673h-.016z" fill="#000"/>
        <path d="M16.514 13.56c-1.783 0-3.455-.576-4.713-1.61a.305.305 0 0 1 0-.484c.16-.13.43-.13.59 0 1.098.903 2.563 1.4 4.123 1.4 3.217 0 5.844-2.16 5.844-4.803 0-2.644-2.627-4.804-5.844-4.804-.286 0-.573.013-.86.053-.222.026-.445-.105-.477-.288-.032-.184.127-.367.35-.393a8.05 8.05 0 0 1 .971-.052c3.679 0 6.672 2.46 6.672 5.484 0 3.023-2.993 5.484-6.672 5.484l.016.013z" fill="#000"/>
        <path d="M16.514 13.691c-1.83 0-3.535-.589-4.824-1.649a.417.417 0 0 1 0-.668.669.669 0 0 1 .812 0c1.067.877 2.5 1.375 4.012 1.375 3.137 0 5.685-2.094 5.685-4.673 0-2.578-2.548-4.673-5.685-4.673-.286 0-.557.013-.828.053a.564.564 0 0 1-.414-.079c-.127-.078-.207-.183-.223-.314-.015-.13 0-.249.112-.353a.564.564 0 0 1 .382-.184c.335-.039.669-.065 1.003-.065 3.774 0 6.831 2.513 6.831 5.615 0 3.102-3.057 5.615-6.83 5.615h-.033zm-4.426-2.199s-.128.026-.191.066a.194.194 0 0 0 0 .3c1.226 1.009 2.866 1.572 4.601 1.572 3.599 0 6.513-2.409 6.513-5.354 0-2.945-2.93-5.353-6.513-5.353-.318 0-.637.013-.955.052-.064 0-.127.04-.175.079-.048.052-.064.104-.048.157 0 .052.048.104.112.144.047.039.127.052.19.039.287-.04.59-.052.876-.052 3.312 0 6.003 2.212 6.003 4.934 0 2.723-2.69 4.935-6.003 4.935-1.608 0-3.105-.51-4.235-1.44a.294.294 0 0 0-.191-.066l.016-.013z" fill="#000"/>
    </g>
    <defs>
        <clipPath id="jtlrrj2bba">
            <path fill="#fff" transform="translate(.398)" d="M0 0h25v25H0z"/>
        </clipPath>
    </defs>
</svg>
