<svg width="36" height="44" viewBox="0 0 36 44" fill="none" xmlns="http://www.w3.org/2000/svg">
    <g clip-path="url(#8t1fhy4b2a)">
        <path d="M26 5.5 22.5 5l.5 2 .5 2.5.5 3-1.5 3L20 19l-2 2 1.5 1 3 1h3l3.5-2.5 2-2.5 1-4-.5-3.5L29 7l-3-1.5zM26 23h-4l2.5 3.5 1.5 3 1 1.5v11.5h7.5V32L33 28l-3-3-4-2z" fill="#FFD7D3"/>
        <path d="M35.174 43.792h-8.209a.609.609 0 0 1-.596-.599c0-.322.275-.598.596-.598h7.613v-7.533c0-6.151-4.884-11.173-10.915-11.173-.619 0-1.238.046-1.834.161-.321.046-.642-.161-.688-.484-.046-.322.16-.645.482-.69a12.003 12.003 0 0 1 2.04-.185c6.673 0 12.107 5.552 12.107 12.37v8.133a.608.608 0 0 1-.596.598z" fill="#000"/>
        <path d="M35.174 44h-8.209a.824.824 0 0 1-.825-.83c0-.46.366-.829.825-.829h7.383v-7.303c0-6.035-4.792-10.942-10.685-10.942-.596 0-1.215.046-1.788.161a.85.85 0 0 1-.963-.668.77.77 0 0 1 .137-.622.892.892 0 0 1 .528-.345 12.549 12.549 0 0 1 2.086-.184c6.81 0 12.336 5.643 12.336 12.6v8.133c0 .46-.367.829-.825.829zm-8.209-1.198a.363.363 0 0 0-.367.368c0 .208.16.37.367.37h8.209a.363.363 0 0 0 .367-.37v-8.132c0-6.703-5.343-12.163-11.878-12.163-.665 0-1.353.07-1.995.161-.091 0-.183.07-.252.162a.615.615 0 0 0-.069.276c.046.207.23.346.436.3a10.19 10.19 0 0 1 1.88-.162c6.145 0 11.144 5.115 11.144 11.404v7.532a.23.23 0 0 1-.23.23h-7.612v.024zM13.641 21.608c-5.87 0-10.64-4.791-10.64-10.689C3.003 5.022 7.772.23 13.642.23c5.87 0 10.64 4.792 10.64 10.69 0 5.897-4.77 10.688-10.64 10.688zm0-20.157c-5.205 0-9.424 4.262-9.424 9.468 0 5.207 4.242 9.468 9.424 9.468 5.182 0 9.424-4.261 9.424-9.468 0-5.206-4.242-9.468-9.424-9.468z" fill="#000"/>
        <path d="M13.642 21.839c-5.985 0-10.869-4.907-10.869-10.92C2.773 4.907 7.657 0 13.642 0 19.627 0 24.51 4.884 24.51 10.92c0 6.035-4.884 10.919-10.868 10.919zm0-21.378c-5.732 0-10.41 4.7-10.41 10.458 0 5.76 4.678 10.459 10.41 10.459s10.41-4.7 10.41-10.459c0-5.759-4.678-10.458-10.41-10.458zm0 20.157c-5.32 0-9.653-4.354-9.653-9.699 0-5.344 4.333-9.698 9.653-9.698s9.653 4.354 9.653 9.698c0 5.345-4.334 9.699-9.653 9.699zm0-18.96c-5.067 0-9.218 4.147-9.218 9.261 0 5.114 4.128 9.261 9.218 9.261s9.217-4.146 9.217-9.26c0-5.115-4.127-9.261-9.217-9.261z" fill="#000"/>
        <path d="M26.941 43.793H.825a.608.608 0 0 1-.596-.6v-9.052c0-7.557 6.122-13.73 13.665-13.73 7.544 0 13.666 6.15 13.666 13.73v9.053a.608.608 0 0 1-.596.599h-.023zm-25.52-1.198h24.9V34.14c0-6.911-5.594-12.51-12.45-12.51-6.855 0-12.45 5.622-12.45 12.51v8.454z" fill="#000"/>
        <path d="M26.942 44H.825A.824.824 0 0 1 0 43.17v-9.053C0 26.423 6.237 20.18 13.872 20.18c7.636 0 13.872 6.266 13.872 13.937v9.054c0 .46-.367.83-.825.83h.023zM13.895 20.618C6.49 20.618.46 26.677.46 34.118v9.053c0 .207.16.368.366.368h26.117a.363.363 0 0 0 .367-.368v-9.054c0-7.44-6.03-13.5-13.437-13.5h.023zm12.45 22.184h-24.9a.23.23 0 0 1-.23-.23v-8.455c0-7.026 5.687-12.739 12.68-12.739 6.994 0 12.68 5.713 12.68 12.74v8.454a.23.23 0 0 1-.23.23zm-24.694-.46h24.465v-8.225c0-6.772-5.48-12.278-12.22-12.278-6.742 0-12.222 5.506-12.222 12.278v8.224H1.65z" fill="#000"/>
        <path d="M23.207 23.866a9.518 9.518 0 0 1-6.787-2.833.614.614 0 0 1 0-.853c.23-.23.62-.23.848 0a8.321 8.321 0 0 0 5.94 2.465c4.63 0 8.414-3.8 8.414-8.454 0-4.654-3.783-8.455-8.415-8.455-.413 0-.825.024-1.238.093a.615.615 0 0 1-.688-.507.617.617 0 0 1 .505-.691 9.51 9.51 0 0 1 1.398-.092c5.297 0 9.607 4.33 9.607 9.652 0 5.321-4.31 9.652-9.607 9.652l.023.023z" fill="#000"/>
        <path d="M23.206 24.096c-2.637 0-5.09-1.036-6.948-2.902a.828.828 0 1 1 1.17-1.175 8.138 8.138 0 0 0 5.778 2.419c4.517 0 8.186-3.686 8.186-8.224S27.723 5.99 23.206 5.99c-.413 0-.803.023-1.192.092a.693.693 0 0 1-.597-.138.77.77 0 0 1-.32-.553c-.023-.23 0-.438.16-.622a.766.766 0 0 1 .55-.323c.482-.069.963-.115 1.445-.115 5.434 0 9.836 4.423 9.836 9.883 0 5.46-4.402 9.882-9.836 9.882h-.046zm-6.374-3.87s-.184.046-.276.116a.392.392 0 0 0 0 .53 9.312 9.312 0 0 0 6.627 2.764c5.182 0 9.378-4.239 9.378-9.422 0-5.183-4.219-9.422-9.378-9.422-.459 0-.917.023-1.376.092-.091 0-.183.069-.252.138-.069.092-.092.184-.069.277 0 .092.07.184.16.253a.3.3 0 0 0 .276.07c.413-.07.848-.093 1.261-.093 4.77 0 8.644 3.893 8.644 8.685 0 4.791-3.875 8.684-8.644 8.684a8.527 8.527 0 0 1-6.1-2.533.379.379 0 0 0-.274-.116l.023-.023z" fill="#000"/>
    </g>
    <defs>
        <clipPath id="8t1fhy4b2a">
            <path fill="#fff" d="M0 0h36v44H0z"/>
        </clipPath>
    </defs>
</svg>
